<svg width="32" height="32" viewBox="0 0 32 32" fill="none" xmlns="http://www.w3.org/2000/svg">
<path fill-rule="evenodd" clip-rule="evenodd" d="M19.4144 7.875C21.8423 7.87756 23.8099 9.84515 23.8125 12.2731V19.4144C23.8099 21.8423 21.8423 23.8099 19.4144 23.8125H12.2731C9.84515 23.8099 7.87756 21.8423 7.875 19.4144V12.2731C7.87756 9.84515 9.84515 7.87756 12.2731 7.875H19.4144ZM19.4144 9.28879H12.2731C10.6257 9.29062 9.29062 10.6257 9.28879 12.2731V19.4144C9.29062 21.0618 10.6257 22.3969 12.2731 22.3987H19.4144C21.0618 22.3969 22.3969 21.0618 22.3987 19.4144V12.2731C22.3969 10.6257 21.0618 9.29062 19.4144 9.28879ZM15.8437 11.8594C18.0405 11.8594 19.8281 13.647 19.8281 15.8437C19.8281 18.0411 18.0405 19.8281 15.8437 19.8281C13.647 19.8281 11.8594 18.0411 11.8594 15.8437C11.8594 13.647 13.647 11.8594 15.8437 11.8594ZM15.8437 13.2313C14.4016 13.2328 13.2328 14.4016 13.2313 15.8437C13.2328 17.2859 14.4016 18.4547 15.8437 18.4562C17.2859 18.4547 18.4547 17.2859 18.4562 15.8437C18.4547 14.4016 17.2859 13.2328 15.8437 13.2313ZM20.1602 10.5312C20.4242 10.5319 20.6772 10.6369 20.8641 10.8234C21.05 11.0074 21.1562 11.265 21.1562 11.5273C21.1541 12.0766 20.7094 12.5213 20.1602 12.5234C19.8985 12.5234 19.6415 12.4172 19.4562 12.2312C19.2703 12.046 19.1641 11.789 19.1641 11.5273C19.1666 10.9783 19.6111 10.5338 20.1602 10.5312Z" fill="white"/>
<rect x="1" y="1" width="30" height="30" rx="15" stroke="white" stroke-width="2"/>
</svg>
