<svg xmlns="http://www.w3.org/2000/svg" id="Camada_1" style="" viewBox="0 0 40 29" width="40" height="29">
<style type="text/css">
	.st0{fill:#FFFFFF;}
	.st1{fill:#84BD06;}
</style>
<path class="st0" d="M35.1,0H4.6C2.1,0,0,2.1,0,4.6v18.9c0,2.6,2.1,4.6,4.6,4.6h30.5c2.5,0,4.6-2.1,4.6-4.6V4.6
	C39.7,2.1,37.7,0,35.1,0z"/>
<g>
	<path class="st1" d="M33.1,13.6c0-1.6-1.3-2.9-3-2.9c-1.7,0-3,1.3-3,3c0,0.8,0.3,1.5,0.9,2.1c0.6,0.6,1.3,0.9,2.1,0.9
		c0.9,0,2.2-0.4,2.8-1.6c0,0,0,0,0,0h-1.2l0,0c-0.3,0.4-0.9,0.6-1.5,0.6c-0.7,0-1.6-0.5-1.9-1.5h4.8C33.1,13.9,33.1,13.7,33.1,13.6
		 M28.4,13.1c0.1-0.7,0.9-1.4,1.8-1.4c0.9,0,1.7,0.7,1.8,1.4H28.4z M23.9,11.7c-1.1,0-1.6,0.6-1.6,1.7v3.3h-1.1v-3.4
		c0-0.6,0.1-1,0.4-1.4c0.3-0.4,1-1.2,2.4-1.2c1.4,0,2.1,0.7,2.4,1.2c0.2,0.4,0.4,0.8,0.4,1.4v3.4h-1.1v-3.3
		C25.5,12.2,24.9,11.7,23.9,11.7 M38.9,10.7l-2.3,5.5L36,17.6l-0.3,0.8h-1.1l0.9-2.1L33,10.7h1.2l1.7,4.2l1.7-4.2H38.9z M17.4,15.6
		c-1.1,0-2-0.9-2-2c0-1.1,0.9-2,2-2c1.1,0,2,0.9,2,2C19.4,14.7,18.5,15.6,17.4,15.6 M17.4,10.7c-1.7,0-3,1.3-3,3c0,1.7,1.3,3,3,3
		c1.7,0,3-1.3,3-3C20.5,12,19.2,10.7,17.4,10.7"/>
	<path class="st1" d="M10.8,10.7c-1.7,0-3.1,1.3-3.1,3c0,1.7,1.3,3,3.1,3c1.7,0,3.1-1.3,3.1-3C13.8,12,12.5,10.7,10.8,10.7"/>
	<polygon class="st0" points="10,14 9.1,14 9.1,12.4 9.6,12.4 9.6,13.6 10,13.6 10,13 10.6,13 10.6,13.6 10.9,13.6 10.9,14 10.6,14 
		10.6,14.7 10,14.7 	"/>
	<polygon class="st0" points="12.7,14.7 12.1,14.7 11.8,14.2 11.6,14.7 11,14.7 11.5,13.9 11,13.1 11.6,13.1 11.8,13.5 12.1,13.1 
		12.7,13.1 12.2,13.9 	"/>
	<path class="st1" d="M4.2,10.7c-1.7,0-3.1,1.3-3.1,3c0,1.7,1.3,3,3.1,3c1.7,0,3.1-1.3,3.1-3C7.2,12,5.9,10.7,4.2,10.7"/>
	<path class="st0" d="M2.9,13.9c0,0.3,0.1,0.4,0.4,0.4c0.2,0,0.3-0.1,0.3-0.3c0-0.2-0.1-0.3-0.4-0.3H3.1v-0.4h0.2
		c0.2,0,0.3-0.1,0.3-0.3c0-0.2-0.1-0.3-0.3-0.3c-0.2,0-0.3,0.1-0.3,0.3H2.5c0-0.4,0.3-0.7,0.8-0.7c0.4,0,0.8,0.2,0.8,0.7
		c0,0.3-0.2,0.5-0.4,0.5C4,13.6,4.2,13.7,4.2,14c0,0.4-0.4,0.7-0.9,0.7c-0.6,0-0.9-0.3-0.9-0.8H2.9z"/>
	<polygon class="st0" points="6.1,14.7 5.5,14.7 5.2,14.2 4.9,14.7 4.3,14.7 4.9,13.9 4.3,13.1 5,13.1 5.2,13.5 5.5,13.1 6.1,13.1 
		5.5,13.9 	"/>
</g>
</svg>
