<svg width="48" height="48" viewBox="0 0 48 48" fill="none" xmlns="http://www.w3.org/2000/svg">
<path d="M24 43.5C13.245 43.5 4.5 34.755 4.5 24C4.5 13.245 13.245 4.5 24 4.5C34.755 4.5 43.5 13.245 43.5 24C43.5 34.755 34.755 43.5 24 43.5ZM24 7.5C14.895 7.5 7.5 14.895 7.5 24C7.5 33.105 14.895 40.5 24 40.5C33.105 40.5 40.5 33.105 40.5 24C40.5 14.895 33.105 7.5 24 7.5Z" fill="white"/>
<path d="M33 26.8646H25.5C23.85 26.8646 22.5 25.5146 22.5 23.8646V11.4746H25.5V23.8646H33V26.8646Z" fill="white"/>
</svg>
