<svg width="48" height="48" viewBox="0 0 48 48" fill="none" xmlns="http://www.w3.org/2000/svg">
<path d="M37.494 18.3519H33.2169V13.7548C33.2169 8.65859 29.0904 4.5 24 4.5C18.9096 4.5 14.7831 8.65859 14.7831 13.7699V18.367H10.506C9.67771 18.367 9 19.0475 9 19.8792V37.4511C9 40.7931 11.6958 43.5 15.0241 43.5H32.9759C36.3042 43.5 39 40.7931 39 37.4511V19.8641C39 19.0324 38.3223 18.3519 37.494 18.3519ZM17.7952 13.7699C17.7952 10.3371 20.5813 7.53955 24 7.53955C27.4187 7.53955 30.2048 10.3371 30.2048 13.7699V18.367H17.7952V13.7699ZM35.988 37.436C35.988 39.0995 34.6325 40.4604 32.9759 40.4604H15.0241C13.3675 40.4604 12.012 39.0995 12.012 37.436V21.3763H35.988V37.436Z" fill="white"/>
<path d="M24 25.5C22.335 25.5 21 26.874 21 28.5534C21 29.6832 21.615 30.6603 22.5 31.1947V35.9733C22.5 36.813 23.175 37.5 24 37.5C24.825 37.5 25.5 36.813 25.5 35.9733V31.1947C26.4 30.6603 27 29.6832 27 28.5534C27 26.8588 25.65 25.5 24 25.5Z" fill="white"/>
</svg>
