<svg width="32" height="32" viewBox="0 0 32 32" fill="none" xmlns="http://www.w3.org/2000/svg">
<path fill-rule="evenodd" clip-rule="evenodd" d="M23.6631 12.8154C23.6631 12.8154 23.5137 11.7197 23.0156 11.2217C22.418 10.5742 21.7207 10.5742 21.4219 10.5244C19.1807 10.375 15.8437 10.375 15.8437 10.375C15.8437 10.375 12.5068 10.375 10.2656 10.5244C9.9668 10.5742 9.26953 10.5742 8.67187 11.2217C8.17383 11.7197 8.02441 12.8154 8.02441 12.8154C8.02441 12.8154 7.875 14.1104 7.875 15.4053V16.6006C7.875 17.8955 8.02441 19.1904 8.02441 19.1904C8.02441 19.1904 8.17383 20.2861 8.67187 20.7842C9.26953 21.4316 10.0664 21.3818 10.415 21.4814C11.71 21.5811 15.8437 21.6309 15.8437 21.6309C15.8437 21.6309 19.1807 21.6309 21.4219 21.4814C21.7207 21.4316 22.418 21.4316 23.0156 20.7842C23.5137 20.2861 23.6631 19.1904 23.6631 19.1904C23.6631 19.1904 23.8125 17.8955 23.8125 16.6006V15.4053C23.8125 14.1104 23.6631 12.8154 23.6631 12.8154ZM14.2002 18.0947V13.6123L18.4834 15.8535L14.2002 18.0947Z" fill="white"/>
<rect x="1" y="1" width="30" height="30" rx="15" stroke="white" stroke-width="2"/>
</svg>
