<svg width="32" height="32" viewBox="0 0 32 32" fill="none" xmlns="http://www.w3.org/2000/svg">
<path fill-rule="evenodd" clip-rule="evenodd" d="M12.0401 16.8625C12.0813 16.7014 12.1801 16.2962 12.2237 16.1268C12.2847 15.8969 12.2608 15.8173 12.0944 15.6168C11.7329 15.1822 11.5015 14.6185 11.5015 13.8208C11.5015 11.5081 13.2004 9.43694 15.9261 9.43694C18.3397 9.43694 19.6655 10.9385 19.6655 12.9459C19.6655 15.5849 18.5184 17.8129 16.8162 17.8129C15.8758 17.8129 15.1726 17.021 15.3974 16.0496C15.6683 14.8895 16.1912 13.6379 16.1912 12.8007C16.1912 12.0516 15.796 11.4259 14.9791 11.4259C14.0181 11.4259 13.2457 12.4392 13.2457 13.7956C13.2457 14.6596 13.533 15.2443 13.533 15.2443C13.533 15.2443 12.549 19.4898 12.3769 20.233C12.0327 21.7135 12.325 23.5288 12.3497 23.7117C12.3645 23.8207 12.5012 23.8459 12.563 23.7645C12.6519 23.6463 13.7966 22.2068 14.1852 20.7682C14.2964 20.3613 14.8185 18.2524 14.8185 18.2524C15.1298 18.8589 16.043 19.3933 17.0131 19.3933C19.9026 19.3933 21.8625 16.7106 21.8625 13.1195C21.8625 10.4033 19.6045 7.875 16.1731 7.875C11.9034 7.875 9.75 10.993 9.75 13.5935C9.75 15.168 10.3355 16.5689 11.5905 17.0906C11.7955 17.1762 11.9808 17.094 12.0401 16.8625Z" fill="white"/>
<rect x="1" y="1" width="30" height="30" rx="15" stroke="white" stroke-width="2"/>
</svg>
