<svg width="32" height="32" viewBox="0 0 32 32" fill="none" xmlns="http://www.w3.org/2000/svg">
<path fill-rule="evenodd" clip-rule="evenodd" d="M13.5383 22.5C19.5534 22.5 22.8437 17.6235 22.8437 13.3566V12.9502C23.5121 12.493 24.0262 11.9343 24.4375 11.2739C23.872 11.5279 23.2036 11.7311 22.5867 11.7819C23.255 11.3755 23.7692 10.7659 24.0262 10.004C23.3579 10.3596 22.6895 10.6643 21.9698 10.7659C21.4042 10.1056 20.5302 9.75 19.6048 9.75C17.8054 9.75 16.3145 11.2231 16.3145 12.9502C16.3145 13.2042 16.3145 13.4582 16.3659 13.6614C13.6411 13.509 11.2248 12.239 9.63105 10.3088C9.37399 10.8167 9.16835 11.3247 9.16835 11.8835C9.16835 13.001 9.73387 13.9661 10.6593 14.5757C10.1452 14.5757 9.63105 14.4233 9.16835 14.1693V14.2201C9.16835 15.744 10.2994 17.0647 11.7903 17.3695C11.4819 17.4711 11.2248 17.4711 10.9163 17.4711C10.7107 17.4711 10.505 17.4711 10.2994 17.4203C10.7107 18.6902 11.8931 19.6554 13.3327 19.6554C12.2016 20.5189 10.8135 21.0269 9.27117 21.0269C9.01411 21.0269 8.75706 21.0269 8.5 20.9761C9.93952 21.992 11.6875 22.5 13.5383 22.5Z" fill="white"/>
<rect x="1" y="1" width="30" height="30" rx="15" stroke="white" stroke-width="2"/>
</svg>
