<svg xmlns="http://www.w3.org/2000/svg" id="Camada_1" style="" viewBox="0 0 40 29" width="40" height="29">
	<style>.cls-1{fill:#fff;}.cls-2{fill:#1a171b;}.cls-3{fill:#246bb5;fill-rule:evenodd;}</style>
<path class="cls-1" d="M35.1,0H4.6A4.653,4.653,0,0,0,0,4.6V23.5a4.588,4.588,0,0,0,4.6,4.6H35.1a4.653,4.653,0,0,0,4.6-4.6V4.6A4.588,4.588,0,0,0,35.1,0Z" transform="translate(0 0)"/><path class="cls-2" d="M25.975,8H22.741a.651.651,0,0,0-.649.648v7.386a.643.643,0,0,0,.66.619h3.882a2.45,2.45,0,0,0,2.519-2.36,2.357,2.357,0,0,0-1.4-2.111A2.468,2.468,0,0,0,25.975,8Zm1.816,6.155a1.214,1.214,0,0,1-1.21,1.211H23.432V9.233h2.483a1.172,1.172,0,0,1,.178,2.331v.014H24.86a.681.681,0,1,0,0,1.361h1.233v0h.488A1.213,1.213,0,0,1,27.791,14.152Z" transform="translate(0 0)"/><path class="cls-2" d="M14.588,25.627h0a.935.935,0,0,0,.934-.934h0V23.566a.209.209,0,1,0-.417,0v1.125h0a.522.522,0,0,1-.519.519h0a.522.522,0,0,1-.52-.519h0V23.566a.208.208,0,1,0-.416,0v1.125h0a.935.935,0,0,0,.934.934Z" transform="translate(0 0)"/><path class="cls-2" d="M17.075,25.627a.208.208,0,0,0,0-.416H16.5a.369.369,0,0,1-.367-.366h0V23.566a.209.209,0,1,0-.417,0v1.278h0a.784.784,0,0,0,.782.781h.575Z" transform="translate(0 0)"/><path class="cls-2" d="M11.814,16.769a.779.779,0,0,0,.857-.692l.638-5.874,2.264,5.749,0,.011v0l.005.01,0,.01,0,.008,0,.01,0,.009,0,0,.007.014v0l.007.012,0,.007a.7.7,0,0,0,.082.119l0,0,.023.025h0l.018.02.02.018h0l.026.023,0,0a.817.817,0,0,0,.119.083l.007,0,.012.006h0l.014.007.005,0,.01,0,.008,0,.009,0,.009.005.011,0h0l.01,0a.77.77,0,0,0,.255.053h.057a.759.759,0,0,0,.228-.043l.006,0,.011,0,.006,0,0,0,.008,0,.008,0,.008,0,.009,0,.009,0,.009,0,.009,0,.006,0,.014-.007h0l.015-.008,0,0a.782.782,0,0,0,.135-.1l.012-.01,0,0a.8.8,0,0,0,.158-.206l0,0L17,16.018l0-.006L17,16l0-.007,0-.012v0l0-.012.007-.015h0l0-.005L19.288,10.2l.638,5.874a.779.779,0,0,0,1.55-.165l-.753-6.925V8.982h0a1.249,1.249,0,0,0-.05-.24,1.324,1.324,0,0,0-.094-.225,1.3,1.3,0,0,0-.968-.673h0l-.042,0a1.3,1.3,0,0,0-.2-.005h0a1.3,1.3,0,0,0-.235.031,1.279,1.279,0,0,0-.906.783L16.3,13.541,14.372,8.648a1.278,1.278,0,0,0-.9-.783,1.32,1.32,0,0,0-.236-.031h0a1.434,1.434,0,0,0-.2.005l-.043,0h0a1.291,1.291,0,0,0-.968.673,1.263,1.263,0,0,0-.145.465h0v.005l-.753,6.925A.778.778,0,0,0,11.814,16.769Z" transform="translate(0 0)"/><path class="cls-2" d="M10.92,25.625a.209.209,0,0,0,.232-.182l.178-1.5.636,1.475a.208.208,0,0,0,.382,0l.636-1.475.179,1.5a.208.208,0,0,0,.413-.049l-.208-1.74v0a.186.186,0,0,0-.005-.027.4.4,0,0,0-.011-.041.273.273,0,0,0-.028-.06.35.35,0,0,0-.259-.166H13a.321.321,0,0,0-.061.009.343.343,0,0,0-.244.2l-.539,1.25-.539-1.25-.012-.023a.255.255,0,0,0-.024-.039.337.337,0,0,0-.042-.049.362.362,0,0,0-.291-.092h0a.326.326,0,0,0-.061.013l-.017,0-.04.019a.334.334,0,0,0-.182.258l-.207,1.74A.208.208,0,0,0,10.92,25.625Z" transform="translate(0 0)"/><path class="cls-2" d="M17.776,25.627a.208.208,0,0,0,.208-.208V23.774h.592a.209.209,0,1,0,0-.417h-1.6a.209.209,0,1,0,0,.417h.592v1.645A.208.208,0,0,0,17.776,25.627Z" transform="translate(0 0)"/><path class="cls-2" d="M18.866,23.566v1.853a.209.209,0,0,0,.417,0V23.566a.209.209,0,1,0-.417,0Z" transform="translate(0 0)"/><path class="cls-2" d="M22.137,24.648a.208.208,0,0,0,.208.208h.722l.073.588a.208.208,0,1,0,.413-.051l-.144-1.157v0l0-.019a1.2,1.2,0,0,0-.037-.169,1.109,1.109,0,0,0-.071-.177.874.874,0,0,0-.791-.512h0v0a.9.9,0,0,0-.2.023.84.84,0,0,0-.184.068,1,1,0,0,0-.514.789l-.13,1.157a.208.208,0,0,0,.413.045l.13-1.157a.585.585,0,0,1,.29-.464.436.436,0,0,1,.093-.034.451.451,0,0,1,.105-.013h0a.473.473,0,0,1,.421.28.87.87,0,0,1,.043.11,1.089,1.089,0,0,1,.024.107v.016l.019.153h-.67A.208.208,0,0,0,22.137,24.648Z" transform="translate(0 0)"/><path class="cls-2" d="M25.628,25.557l.017-.007h0l.026-.013a.216.216,0,0,0,.043-.029.29.29,0,0,0,.108-.228V23.566a.208.208,0,1,0-.416,0v1.363L24.3,23.516a.292.292,0,0,0-.22-.113h0a.368.368,0,0,0-.051,0h0L24,23.411a.138.138,0,0,0-.029.008.293.293,0,0,0-.163.136h0c-.006.013-.012.026-.016.037h0a.3.3,0,0,0-.017.067.219.219,0,0,0,0,.036h0v1.722a.208.208,0,0,0,.416,0V24.048L25.3,25.46l0,0h0l.007.008a.182.182,0,0,0,.027.028.294.294,0,0,0,.041.031.229.229,0,0,0,.027.014.291.291,0,0,0,.223.012h0Z" transform="translate(0 0)"/><path class="cls-2" d="M26.828,23.774h.614a.209.209,0,0,0,0-.417h-.614v0a.821.821,0,0,0-.82.82h0v.626h0a.821.821,0,0,0,.82.82h.614a.208.208,0,0,0,0-.416h-.614a.408.408,0,0,1-.405-.4h0v-.626h0a.4.4,0,0,1,.119-.286.406.406,0,0,1,.286-.12Z" transform="translate(0 0)"/><path class="cls-2" d="M28.647,23.359v0h0v0a.984.984,0,0,0-.682.272.924.924,0,0,0-.287.667h0v.388h0a.925.925,0,0,0,.286.666.989.989,0,0,0,.683.273h0a.985.985,0,0,0,.682-.273.922.922,0,0,0,.287-.667h0V24.3h0a.922.922,0,0,0-.287-.667A.984.984,0,0,0,28.647,23.359Zm.555,1.327a.512.512,0,0,1-.161.368.569.569,0,0,1-.394.157h0a.567.567,0,0,1-.394-.157.515.515,0,0,1-.161-.367h0V24.3h0a.515.515,0,0,1,.161-.368.567.567,0,0,1,.394-.157h0a.569.569,0,0,1,.394.157.515.515,0,0,1,.161.368h0v.388h0Z" transform="translate(0 0)"/><path class="cls-2" d="M20.477,23.357h-.815a.208.208,0,0,0-.137.059h0l0,0a.209.209,0,0,0-.049.072.2.2,0,0,0-.016.083h0v1.844a.208.208,0,0,0,.207.208h1.013a.678.678,0,0,0,.677-.677h0a.681.681,0,0,0-.185-.464l-.013-.014a.668.668,0,0,0-.118-.094.669.669,0,0,0,.1-.354h0a.662.662,0,0,0-.664-.663v0Zm.175.489a.248.248,0,0,1,.074.176h0a.248.248,0,0,1-.073.176h0a.251.251,0,0,1-.156.073H20.4a.208.208,0,1,0,0,.416h.277a.262.262,0,0,1,.185.077l.008.008a.265.265,0,0,1,.069.176h0a.263.263,0,0,1-.262.262h-.8V23.774h.6A.247.247,0,0,1,20.652,23.846Z" transform="translate(0 0)"/><path class="cls-3" d="M14.615,3.327h11.92a1.573,1.573,0,0,1,1.523,1.611v.77a.741.741,0,1,1-1.475.008V5.3a.488.488,0,0,0-.486-.487H14.151a.487.487,0,0,0-.486.486v.412a.709.709,0,1,1-1.406.024V4.938a1.574,1.574,0,0,1,1.523-1.611ZM20.081,21.3h7.73c1.766,0,1.784-1.876,1.6-2.8a.668.668,0,0,0-1.273,0v.723a.6.6,0,0,1-.6.6H12.719a.6.6,0,0,1-.6-.6V18.5a.668.668,0,0,0-1.273,0c-.18.927-.162,2.8,1.6,2.8h7.632Z" transform="translate(0 0)"/></svg>