<svg xmlns="http://www.w3.org/2000/svg" id="Camada_1" style="" viewBox="0 0 40 29" width="40" height="29">
	<style>.cls-1{fill:#fff;}.cls-2{fill:#d60510;}</style>
	<path class="cls-1" d="M35.1,0H4.6A4.653,4.653,0,0,0,0,4.6V23.5a4.588,4.588,0,0,0,4.6,4.6H35.1a4.653,4.653,0,0,0,4.6-4.6V4.6A4.588,4.588,0,0,0,35.1,0Z" transform="translate(0 0)"/><path class="cls-2" d="M3.2,21.016l-.063.476a.4.4,0,0,0,.4.442h15.5a.4.4,0,0,0,.4-.442l-.065-.476a.683.683,0,0,1,.6-.749.672.672,0,0,1,.74.6l.06.464a1.592,1.592,0,0,1-1.514,1.946H3.311A1.592,1.592,0,0,1,1.8,21.332l.06-.464a.671.671,0,0,1,.738-.6.685.685,0,0,1,.6.749" transform="translate(0 0)"/><path d="M17.524,17.423a1.274,1.274,0,0,0,1.34-1.27,1.336,1.336,0,0,0-1.441-1.22H15.906a.63.63,0,0,1,0-1.26H16.92a1.183,1.183,0,0,0,1.243-1.087,1.207,1.207,0,0,0-1.288-1.211h-2.46l-.01,6.049h3.119Zm1.865-4.841a2,2,0,0,1-.594,1.427l-.037.045.052.032a2.471,2.471,0,0,1,1.282,2.069,2.536,2.536,0,0,1-2.561,2.578H13.786a.668.668,0,0,1-.659-.676V10.793a.667.667,0,0,1,.658-.676l3.091.009a2.442,2.442,0,0,1,2.513,2.456" transform="translate(0 0)"/><path d="M7.319,16.243l.017.051.019-.051c.174-.479.383-1.008.6-1.586q.343-.91.685-1.742t.656-1.5a5.109,5.109,0,0,1,.512-.922,1.008,1.008,0,0,1,.813-.368h.155a.722.722,0,0,1,.488.157.545.545,0,0,1,.2.336l.967,7.505a.615.615,0,0,1-.165.454.659.659,0,0,1-.471.155.761.761,0,0,1-.487-.144.521.521,0,0,1-.226-.375c-.033-.25-.063-.527-.093-.831s-.194-1.613-.236-1.943-.312-2.461-.4-3.231l-.008-.065-.311.65c-.1.224-.219.493-.344.806s-.25.643-.375.992-.734,2.051-.734,2.051c-.056.155-.161.468-.256.756s-.185.545-.209.595a.871.871,0,0,1-1.549,0c-.026-.05-.114-.31-.211-.595s-.2-.6-.258-.756c0,0-.6-1.712-.732-2.051s-.251-.678-.376-.992-.239-.582-.342-.806l-.312-.65-.006.065c-.095.77-.365,2.891-.406,3.231s-.193,1.639-.235,1.943-.062.581-.1.831a.528.528,0,0,1-.224.375.769.769,0,0,1-.489.144.651.651,0,0,1-.469-.155.621.621,0,0,1-.167-.454l.968-7.505a.559.559,0,0,1,.2-.336.727.727,0,0,1,.487-.157h.157a1.006,1.006,0,0,1,.811.368,5,5,0,0,1,.513.922q.313.656.656,1.5t.687,1.742c.22.578.429,1.107.6,1.586" transform="translate(0 0)"/><path class="cls-2" d="M5.42,5.579H17.191c1.109,0,1.661.833,1.79,1.93l.05.352a.689.689,0,0,1-.608.754.679.679,0,0,1-.743-.61l-.047-.336c-.05-.418-.226-.739-.65-.739H5.628c-.424,0-.6.321-.65.739l-.046.336a.677.677,0,0,1-.744.61.688.688,0,0,1-.608-.754l.05-.352c.131-1.1.682-1.93,1.79-1.93" transform="translate(0 0)"/><path d="M26.593,13.488q-.123.473-.254,1.008c-.088.356-.177.7-.263,1.023s-.166.61-.245.857a2.9,2.9,0,0,1-.194.5.505.505,0,0,1-.481.241,1.037,1.037,0,0,1-.25-.04.422.422,0,0,1-.258-.217,3.018,3.018,0,0,1-.193-.532c-.078-.263-.158-.564-.246-.908s-.17-.706-.257-1.089-.164-.737-.233-1.068-.127-.609-.172-.84-.071-.368-.077-.415a.343.343,0,0,1-.009-.06v-.035a.286.286,0,0,1,.112-.236.421.421,0,0,1,.275-.09.443.443,0,0,1,.25.065.367.367,0,0,1,.136.226c0,.011.017.1.047.25s.073.351.121.59.1.508.164.806.122.6.189.9.132.6.2.887.127.531.185.736q.085-.291.19-.665c.068-.248.138-.506.206-.77s.134-.531.2-.8.121-.513.177-.741.1-.431.14-.608.071-.309.095-.4a.45.45,0,0,1,.455-.351.485.485,0,0,1,.311.1.451.451,0,0,1,.153.252c.064.281.132.594.207.94s.152.7.232,1.049.165.7.249,1.042.17.641.25.9c.057-.205.12-.452.186-.736s.132-.581.2-.884.135-.6.2-.9.121-.564.174-.8.093-.43.124-.578.047-.226.047-.232a.369.369,0,0,1,.138-.226.437.437,0,0,1,.25-.065.422.422,0,0,1,.274.09.288.288,0,0,1,.112.236v.035a.325.325,0,0,1-.008.06c-.005.047-.033.183-.083.415s-.106.513-.174.84-.147.683-.234,1.063-.169.742-.251,1.084-.164.645-.242.905a2.909,2.909,0,0,1-.194.526.454.454,0,0,1-.261.228.974.974,0,0,1-.254.047.9.9,0,0,1-.1-.009.829.829,0,0,1-.146-.035A.549.549,0,0,1,27.6,17a.366.366,0,0,1-.121-.151,3.723,3.723,0,0,1-.185-.539c-.072-.252-.149-.535-.233-.853s-.165-.649-.245-.995-.156-.67-.223-.972" transform="translate(0 0)"/><path d="M31.09,15.536c-.087.276-.162.528-.228.762s-.128.427-.185.575a.369.369,0,0,1-.379.25.376.376,0,0,1-.289-.1.365.365,0,0,1-.09-.254.375.375,0,0,1,.017-.112c.012-.032.048-.151.108-.35s.138-.448.237-.746.205-.623.321-.976.239-.7.366-1.051.25-.669.37-.967a6.319,6.319,0,0,1,.335-.724.387.387,0,0,1,.185-.2.932.932,0,0,1,.636.008.347.347,0,0,1,.186.207c.081.171.178.4.288.689s.23.6.352.935.245.676.366,1.023.232.674.331.974.187.555.258.767.117.348.134.409a.417.417,0,0,1,.017.113.334.334,0,0,1-.1.253.42.42,0,0,1-.3.1.324.324,0,0,1-.221-.066.441.441,0,0,1-.115-.184c-.057-.148-.125-.341-.2-.575s-.159-.486-.245-.762ZM33,14.79c-.121-.371-.235-.713-.344-1.023s-.221-.608-.336-.888c-.028-.062-.058-.134-.09-.219s-.05-.131-.056-.149a.757.757,0,0,0-.056.141c-.032.088-.062.164-.09.226-.114.28-.226.577-.333.888s-.219.652-.338,1.023H33Z" transform="translate(0 0)"/><path d="M35.914,14.961a.757.757,0,0,1-.082-.094,1.1,1.1,0,0,1-.082-.119c-.081-.114-.166-.252-.262-.416S35.3,14,35.2,13.815s-.185-.369-.273-.554-.171-.357-.241-.516-.134-.3-.185-.416a1.485,1.485,0,0,1-.095-.246c-.011-.028-.018-.05-.022-.064s0-.036,0-.065a.34.34,0,0,1,.107-.256.414.414,0,0,1,.3-.1.31.31,0,0,1,.245.086.653.653,0,0,1,.107.172c.011.03.039.091.082.188s.095.218.158.36.135.3.215.471.162.341.246.507.164.323.241.475a3.164,3.164,0,0,0,.219.373,6.233,6.233,0,0,0,.353-.626c.125-.252.246-.5.36-.745s.213-.464.3-.652.132-.306.151-.351a.684.684,0,0,1,.107-.173.31.31,0,0,1,.245-.085.414.414,0,0,1,.3.1.34.34,0,0,1,.107.257.478.478,0,0,1,0,.064c0,.014-.011.036-.02.064l-.1.249c-.048.12-.11.261-.182.42s-.151.334-.239.519-.181.37-.275.553-.19.358-.285.523-.182.306-.262.42a1.3,1.3,0,0,1-.164.2v1.775a.374.374,0,0,1-.108.279.414.414,0,0,1-.558,0,.374.374,0,0,1-.108-.279V14.961Z" transform="translate(0 0)"/></svg>