<svg width="50" height="50" viewBox="0 0 50 50" fill="none" xmlns="http://www.w3.org/2000/svg">
<path fill-rule="evenodd" clip-rule="evenodd" d="M24.7756 7.04715L23.7615 10.1528C23.7632 10.1541 23.7649 10.1554 23.7667 10.1568L23.7769 10.1645L24.2497 10.5296C24.7656 10.9297 25.1313 11.5378 25.1313 12.2508V22.5726H26.0059V12.2508C26.0059 11.5388 26.3707 10.9313 26.8854 10.5312C26.8861 10.5307 26.8868 10.5302 26.8875 10.5296L27.3272 10.1857L26.3198 7.047C26.3139 7.0391 26.2955 7.01824 26.2516 6.99159C26.1739 6.94444 26.0468 6.90104 25.8846 6.90104H25.2109C25.0487 6.90104 24.9216 6.94444 24.8439 6.99159C24.7997 7.01841 24.7814 7.03938 24.7756 7.04715ZM22.6609 24.7861C22.6556 24.7917 22.6491 24.7991 22.6415 24.8088C22.5883 24.8769 22.526 25.0143 22.526 25.2055C22.526 25.3968 22.5883 25.5342 22.6415 25.6023C22.6491 25.612 22.6556 25.6194 22.6609 25.625H28.524C28.5293 25.6194 28.5358 25.612 28.5434 25.6023C28.5966 25.5342 28.6589 25.3968 28.6589 25.2055C28.6589 25.0143 28.5966 24.8769 28.5434 24.8088C28.5358 24.7991 28.5293 24.7917 28.524 24.7861H22.6609ZM30.1395 27.1431C30.6233 26.6146 30.8724 25.868 30.8724 25.2055C30.8724 24.023 30.0787 22.5726 28.5733 22.5726H28.2195V12.3001C28.2253 12.2943 28.2334 12.2871 28.244 12.2788L28.7233 11.904L28.7339 11.8953C29.4032 11.3448 29.7525 10.4554 29.4514 9.56086L28.4229 6.35625L28.4214 6.3516C28.0561 5.23073 26.9085 4.6875 25.8846 4.6875H25.2109C24.1872 4.6875 23.0398 5.23052 22.6743 6.35094L21.6216 9.57491L21.6184 9.58559C21.3367 10.5111 21.7375 11.3958 22.4284 11.9199L22.8932 12.2788C22.893 12.2786 22.8934 12.279 22.8932 12.2788C22.9035 12.2869 22.912 12.2944 22.9178 12.3001V22.5726H22.6116C21.1062 22.5726 20.3125 24.023 20.3125 25.2055C20.3125 25.8677 20.5614 26.6139 21.0447 27.1423C20.9567 27.386 20.9087 27.6492 20.9087 27.9241V39.8475C20.9087 42.432 23.0079 44.5312 25.5925 44.5312C28.177 44.5312 30.2762 42.432 30.2762 39.8475V27.9241C30.2762 27.6501 30.228 27.3871 30.1395 27.1431ZM27.9771 27.8385H23.2078C23.1596 27.8385 23.1222 27.8772 23.1222 27.9241V39.8475C23.1222 41.2095 24.2304 42.3177 25.5925 42.3177C26.9545 42.3177 28.0627 41.2095 28.0627 39.8475V27.9241C28.0627 27.904 28.0555 27.8835 28.0366 27.8646C28.0178 27.8457 27.9972 27.8385 27.9771 27.8385Z" fill="#191919"/>
</svg>
