<?xml version="1.0" encoding="UTF-8"?>
<svg width="100px" height="100px" viewBox="0 0 100 100" version="1.1" xmlns="http://www.w3.org/2000/svg" xmlns:xlink="http://www.w3.org/1999/xlink">
    <!-- Generator: Sketch 52.6 (67491) - http://www.bohemiancoding.com/sketch -->
    <title>Atoms/No Picture</title>
    <desc>Created with Sketch.</desc>
    <g id="Atoms/No-Picture" stroke="none" stroke-width="1" fill="none" fill-rule="evenodd">
        <g id="No-picture">
            <rect id="Rectangle" fill="#E0DFE6" x="0" y="0" width="100" height="100"></rect>
            <path d="M41.354083,49.003689 C41.4202393,49.0091938 41.4774556,49.0183685 41.5346719,49.0183685 C44.0611284,49.0183685 46.589373,49.0183685 49.1194056,49.0055239 C50.2994915,48.9981842 51.4670613,48.8623989 52.5899309,48.4568779 C53.9023294,47.9816294 54.9804988,47.2091211 55.5973619,45.8787921 C56.1015804,44.7888399 56.2625012,43.6346648 56.1713127,42.4401212 C55.9942998,40.1134217 54.8982504,38.4784933 52.7419116,37.6362574 C51.4813654,37.1426595 50.1653908,37.0050393 48.8297482,36.9958646 C46.4034201,36.9811851 43.977092,36.9921947 41.550764,36.9903598 C41.4881836,36.9903598 41.4238153,36.9995345 41.354083,37.0050393 L41.354083,49.003689 Z M50.0116221,33.8709677 C50.4693523,33.9150062 50.9306586,33.9535399 51.3883889,34.008588 C52.9332286,34.1920816 54.419064,34.586593 55.7940428,35.3609362 C57.5105314,36.3297826 58.6745252,37.7665379 59.239536,39.6840465 C59.9529515,42.1079976 59.9457995,44.5227741 58.9766987,46.8825024 C58.2024908,48.770652 56.8561201,50.0826316 55.0108949,50.8551399 C54.9465266,50.880829 54.8821583,50.910188 54.824942,50.9358771 C54.824942,50.9615662 54.823154,50.9707409 54.824942,50.9725758 C55.7511306,51.660677 56.2178009,52.6790668 56.6594391,53.7011264 C58.2239469,57.3287958 59.7652106,60.96564 61.3172023,64.5969793 C61.5693116,65.1878288 61.8178448,65.7786784 62.0699541,66.3695279 C62.0788941,66.3933821 62.0842581,66.4227411 62.0967742,66.4631097 C62.0216778,66.4686145 61.9590975,66.4741193 61.8983052,66.4741193 C60.7843757,66.4759542 59.6722341,66.4722844 58.5600926,66.4796241 C58.4009598,66.481459 58.3365915,66.4190712 58.2775872,66.279616 C56.6683792,62.5033167 55.0573832,58.7270174 53.4374471,54.954388 C53.2425541,54.5029936 53.011901,54.0644438 52.7812478,53.6313988 C52.2913334,52.7120956 51.5099735,52.2643711 50.5104765,52.1964785 C50.1367827,52.1707894 49.7595128,52.1469352 49.3858189,52.1451002 C46.784266,52.1395954 44.1862891,52.1432653 41.5847361,52.1432653 L41.348719,52.1432653 L41.348719,66.4576049 L37.9157419,66.4576049 C37.9103778,66.3805375 37.9032258,66.3016353 37.9032258,66.222733 L37.9032258,34.0911601 C37.9032258,34.0177627 37.9139539,33.9425303 37.9193179,33.8709677 L50.0116221,33.8709677 Z" id="Fill-1" fill="#FFFFFF"></path>
        </g>
    </g>
</svg>